<svg xmlns="http://www.w3.org/2000/svg" xmlns:xlink="http://www.w3.org/1999/xlink" width="234.365" height="40.507" viewBox="0 0 234.365 40.507">
  <defs>
    <filter id="Path_61" x="108.626" y="0" width="22.978" height="21.616" filterUnits="userSpaceOnUse">
      <feOffset input="SourceAlpha"/>
      <feGaussianBlur stdDeviation="0.5" result="blur"/>
      <feFlood flood-opacity="0.671"/>
      <feComposite operator="in" in2="blur"/>
      <feComposite in="SourceGraphic"/>
    </filter>
  </defs>
  <g id="secure_working_logo" transform="translate(-535 -213.633)">
    <g id="Group_38" data-name="Group 38" transform="translate(535 216.034)">
      <text id="ecure" transform="translate(30.366 31.106)" fill="#fff" font-size="27" font-family="Century751BT-RomanB, Century751 BT" letter-spacing="0.06em"><tspan x="0" y="0">ecure</tspan></text>
      <g id="Group_37" data-name="Group 37" transform="translate(0 0)">
        <path id="Path_27" data-name="Path 27" d="M1837.533,1089.315c-.1-.044-10.136-3.667-13.854-4.717l-1.126-.273c-1.07-1.753-1.183-6.466-1.241-7.543l.835-.519c14.426-8.916,27.052.295,27.178.389l.717.536-.274,4.306-3.3-.21.157-2.465a21.2,21.2,0,0,0-21.94-.219,4.2,4.2,0,0,0,.544,2.894c4.316,1.384,13.242,4.621,13.63,4.79Z" transform="translate(-1821.312 -1072.379)" fill="#fff"/>
        <path id="Path_28" data-name="Path 28" d="M1860.34,1155.719l-.869-.521c-.076-.046-7.343-3.7-9.817-9.392l3.033-1.319c1.59,3.655,5.739,6.034,7.633,7.319,5.489-4.031,6.134-5.6,7.333-8.226l-1.771-1.037,1.324-3.273,5.083,2.077c-.444,1.964-1.5,8.089-11.091,13.836Z" transform="translate(-1845.888 -1124.389)" fill="#dd7740"/>
      </g>
    </g>
    <g id="Group_67" data-name="Group 67" transform="translate(645.126 215)">
      <text id="orking" transform="translate(43.239 33.14)" fill="#fff" font-size="26" font-family="Century751BT-RomanB, Century751 BT" letter-spacing="0.06em"><tspan x="0" y="0">orking</tspan></text>
      <g id="Group_49" data-name="Group 49" transform="translate(0 0)">
        <path id="Path_59" data-name="Path 59" d="M2508.718,3034.753a40.866,40.866,0,0,1-2.543-3.791l17.075-29.065h4.927l-10.2,17.6,5.273,8.291,13.958-25.4h4.317l-18.275,32.869-7.46-12.175S2514.156,3026.083,2508.718,3034.753Z" transform="translate(-2493.633 -3001.897)" fill="#fff"/>
        <path id="Path_60" data-name="Path 60" d="M2475.4,3023.38l-4.485-7.49,9.835-14.287h9l-9,13.423Z" transform="translate(-2467.335 -3001.603)" fill="#dd7740"/>
        <g transform="matrix(1, 0, 0, 1, -110.13, -1.37)" filter="url(#Path_61)">
          <path id="Path_61-2" data-name="Path 61" d="M7.109,15.988,12.265,4.77,0,0Z" transform="translate(123.97 1.5) rotate(60)" fill="#fff"/>
        </g>
        <path id="Path_67" data-name="Path 67" d="M2679.117,3030.989l3.533-6.123-2.6-4.762-3.995,6.751Z" transform="translate(-2654.799 -3004.126)" fill="#343434"/>
      </g>
    </g>
  </g>
</svg>
